<svg xmlns="http://www.w3.org/2000/svg" xmlns:xlink="http://www.w3.org/1999/xlink" id="Layer_1" data-name="Layer 1" viewBox="0 0 1843.02 345.38"><defs><style>.cls-1{fill:url(#linear-gradient);}.cls-2{fill:url(#linear-gradient-2);}.cls-3{fill:url(#linear-gradient-5);}.cls-4{fill:url(#linear-gradient-6);}.cls-5{fill:url(#linear-gradient-7);}.cls-6{fill:url(#linear-gradient-8);}.cls-7{fill:url(#linear-gradient-9);}.cls-8{fill:url(#linear-gradient-10);}.cls-9{fill:url(#linear-gradient-11);}.cls-10{fill:url(#linear-gradient-12);}</style><linearGradient id="linear-gradient" x1="-25.71" y1="196.27" x2="1843.05" y2="196.27" gradientUnits="userSpaceOnUse"><stop offset="0" stop-color="#ffbe47"/><stop offset="0.43" stop-color="#ff4eaa" stop-opacity="0.8"/><stop offset="0.52" stop-color="#f04aa6" stop-opacity="0.82"/><stop offset="0.67" stop-color="#c93f9c" stop-opacity="0.86"/><stop offset="0.86" stop-color="#8a2d8d" stop-opacity="0.94"/><stop offset="1" stop-color="#581f80"/></linearGradient><linearGradient id="linear-gradient-2" x1="-25.71" y1="93.39" x2="1843.05" y2="93.39" xlink:href="#linear-gradient"/><linearGradient id="linear-gradient-5" x1="-25.71" y1="162.15" x2="1843.05" y2="162.15" xlink:href="#linear-gradient"/><linearGradient id="linear-gradient-6" x1="-25.71" y1="252.41" x2="1843.05" y2="252.41" xlink:href="#linear-gradient"/><linearGradient id="linear-gradient-7" x1="-25.71" y1="251.53" x2="1843.05" y2="251.53" xlink:href="#linear-gradient"/><linearGradient id="linear-gradient-8" x1="-25.71" y1="250.32" x2="1843.05" y2="250.32" xlink:href="#linear-gradient"/><linearGradient id="linear-gradient-9" x1="-25.71" y1="162.15" x2="1843.05" y2="162.15" xlink:href="#linear-gradient"/><linearGradient id="linear-gradient-10" x1="-25.71" y1="162.17" x2="1843.05" y2="162.17" xlink:href="#linear-gradient"/><linearGradient id="linear-gradient-11" x1="-25.71" y1="162.13" x2="1843.05" y2="162.13" xlink:href="#linear-gradient"/><linearGradient id="linear-gradient-12" x1="-25.71" y1="162.48" x2="1843.05" y2="162.48" xlink:href="#linear-gradient"/></defs><title>Forsage logo-021</title><polygon class="cls-1" points="41.12 179.75 8.39 250.34 49.81 250.25 82.5 179.75 258.3 179.75 275.7 142.21 58.53 142.21 41.12 179.75"/><polygon class="cls-2" points="307.04 74.62 131.24 74.62 89.86 74.62 72.45 112.16 289.63 112.16 307.04 74.62"/><polygon class="cls-1" points="1572.11 179.75 1557.07 212.19 1556.79 212.19 1539.38 249.72 1539.66 249.72 1539.38 250.34 1580.8 250.25 1581.05 249.72 1756.55 249.72 1773.95 212.19 1598.45 212.19 1613.49 179.75 1789.29 179.75 1806.69 142.21 1589.51 142.21 1572.11 179.75"/><polygon class="cls-2" points="1662.23 74.62 1620.85 74.62 1603.44 112.16 1820.62 112.16 1838.03 74.62 1662.23 74.62"/><path class="cls-3" d="M545.55,112.17a26.43,26.43,0,0,0-24-37.57H387.17a64.8,64.8,0,0,0-58.79,37.57l-32.74,70.6h.08l-13.64,29.42h0a26.46,26.46,0,0,0,24,37.51H440.49a64.79,64.79,0,0,0,58.78-37.58l46.18-100Zm-41.5,0-46.18,100H323.5l32.7-70.51,13.65-29.45H524.72Z"/><path class="cls-4" d="M1029.06,252.13l-.26.56Z"/><path class="cls-5" d="M1029.62,250.92l-.56,1.21C1029.19,251.85,1029.35,251.45,1029.62,250.92Z"/><path class="cls-6" d="M1030.18,249.73c-.23.47-.41.84-.56,1.19Z"/><path class="cls-7" d="M1287.06,74.62H1152.65a64.83,64.83,0,0,0-58.79,37.58h175.68l-14.41,31.21H1079.46l-18.25,39.36h.09l-13.66,29.43h0L1045.9,216c-.9,2-1.76,3.82-2.59,5.56l-3.16,6.84-.19.42c-.54,1.18-1.06,2.28-1.56,3.34l-.93,2c-1.39,3-2.56,5.57-3.55,7.66l-1.39,3.13-.36.78-.74,1.6c-.42.89-.77,1.63-1,2.25l-.07.14h41.38l17.41-37.57,14.48-31.25h134.35l-31.76,68.78H1247l64.13-137.55h.1a26.45,26.45,0,0,0-24.12-37.47Z"/><path class="cls-8" d="M1411.43,142.2,1394,179.77h99.22l-8.22,17.8a25.14,25.14,0,0,1-22.83,14.6H1357.44a8.63,8.63,0,0,1-7.82-12.26l33.9-73.12a25.2,25.2,0,0,1,22.86-14.59h20.78l138.93-.26c7.87-17.46,0,0,17.59-37.29H1407.56a64.83,64.83,0,0,0-58.79,37.58l-32.71,70.54h.09l-13.66,29.42h0a26.46,26.46,0,0,0,24,37.51h134.32a64.8,64.8,0,0,0,58.79-37.58l32.32-70Z"/><path class="cls-9" d="M1006.57,143.41H865.12l14.48-31.24h175.71c17.69-37.57-.11,0,17.69-37.57H897a64.82,64.82,0,0,0-58.79,37.57l-15.6,33.64h.4l-2.11,4.58a21.47,21.47,0,0,0,19.48,30.51H982.12l-14.44,31.25H791.89c-8.09,17.51,0,0-18.1,37.51H950.22A64.83,64.83,0,0,0,1009,212.08l14.42-31.25h.4l2.78-6a22.28,22.28,0,0,0-20.12-31.52Z"/><path class="cls-10" d="M776.48,74.62H600.17L582.94,112.2H759l-14.41,31.21H568.67l-18.09,39.36h0l-31.05,67h41.39l31.88-68.79h78.32l25.33,69.4h41l-24.83-69.4h19a57.06,57.06,0,0,0,52.07-33.71l1.71-3.82,14.93-31.24h.11a26.45,26.45,0,0,0-23.92-37.55Z"/></svg>